<svg width="35" height="34" viewBox="0 0 35 34" fill="none" xmlns="http://www.w3.org/2000/svg">
<path fill="#07c972" d="M24.5728 21.0154H23.0726L22.5408 20.5026C24.4019 18.3377 25.5224 15.5271 25.5224 12.4696C25.5224 5.6519 19.9961 0.12561 13.1784 0.12561C6.36076 0.12561 0.834473 5.6519 0.834473 12.4696C0.834473 19.2872 6.36076 24.8135 13.1784 24.8135C16.2359 24.8135 19.0465 23.6931 21.2115 21.832L21.7242 22.3637V23.864L31.2196 33.3403L34.0492 30.5107L24.5728 21.0154ZM13.1784 21.0154C8.44974 21.0154 4.63261 17.1982 4.63261 12.4696C4.63261 7.74088 8.44974 3.92375 13.1784 3.92375C17.9071 3.92375 21.7242 7.74088 21.7242 12.4696C21.7242 17.1982 17.9071 21.0154 13.1784 21.0154Z" fill="white"/>
</svg>
